<svg xmlns="http://www.w3.org/2000/svg" viewBox="0 0 120 120" width="120" height="120" role="img" aria-labelledby="title2 desc2">
  <title id="title2">Hand position 2 — Pointing index</title>
  <desc id="desc2">Stylized hand with index finger extended outward, other fingers slightly folded, gold stroke.</desc>
  <g fill="none" stroke="#D4AF37" stroke-width="3" stroke-linecap="round" stroke-linejoin="round">
    <!-- index finger extended -->
    <path d="M64 22 C64 10, 70 8, 74 8 C78 8, 84 10, 84 22 L84 40" />
    <!-- folded fingers -->
    <path d="M56 36 C60 34, 62 40, 60 46 L60 56" />
    <path d="M48 38 C52 36, 54 42, 52 48 L52 58" />
    <path d="M40 44 C44 42, 46 48, 44 54 L44 64" />
    <!-- thumb -->
    <path d="M30 56 C26 48, 22 44, 26 38 C30 32, 36 34, 42 40" />
    <!-- palm -->
    <path d="M36 66 C42 86, 58 96, 72 96 C86 96, 98 86, 98 66 C86 74, 70 78, 56 78 C42 78, 36 72, 36 66 Z" />
  </g>
</svg>